<svg width="40" height="30" viewBox="0 0 40 30" fill="none" xmlns="http://www.w3.org/2000/svg">
<g filter="url(#filter0_d_22_168)">
<path d="M28.7408 9.5165C28.7408 3.76799 22.6812 0 16.6315 0C10.5577 0 4.52222 3.7857 4.52222 9.5165C4.52222 11.6846 5.47178 13.8047 7.19605 15.4865C7.26202 15.5508 7.28728 15.6485 7.26195 15.7414C6.72038 17.7254 5.43766 19.5177 4.91132 20.1961C4.7476 20.4072 4.72067 20.6863 4.84111 20.9247C4.95885 21.1578 5.19161 21.3005 5.45167 21.3005C5.45757 21.3005 5.46342 21.3004 5.46932 21.3003C8.0449 21.2361 11.0303 20.5091 12.8757 18.6949C12.9402 18.6314 13.0327 18.6063 13.1233 18.6279C14.2572 18.8968 15.4375 19.0331 16.6315 19.0331C22.7036 19.033 28.7408 15.2488 28.7408 9.5165ZM13.3361 17.7305C12.9352 17.6353 12.5213 17.75 12.2292 18.0371C10.3837 19.8516 7.37028 20.2641 5.94376 20.3557C6.59539 19.4562 7.65487 17.8042 8.15163 15.9841C8.26519 15.5682 8.14573 15.1245 7.83993 14.8262C6.2728 13.2978 5.44442 11.4617 5.44442 9.5165C5.44442 4.77762 10.4629 0.922201 16.6315 0.922201C22.8001 0.922201 27.8186 4.77756 27.8186 9.5165C27.8186 14.2554 22.8001 18.1108 16.6315 18.1108C15.5091 18.1108 14.4004 17.9828 13.3361 17.7305Z" fill="#674D40"/>
<path d="M31.7066 17.178C34.395 15.8194 36 13.5037 36 10.9836C36 7.42204 32.7805 4.37878 28.3447 3.74731C28.0929 3.71153 27.8591 3.88669 27.8232 4.13882C27.7873 4.39095 27.9626 4.62439 28.2147 4.66029C32.1915 5.2264 35.0778 7.88572 35.0778 10.9836C35.0778 13.1485 33.6621 15.1565 31.2906 16.355C30.8295 16.588 30.5824 17.1032 30.6898 17.608C30.9146 18.6645 31.3933 19.6429 31.7761 20.306C29.0531 19.8528 28.021 18.5462 27.6947 17.9807C27.4932 17.6316 27.1165 17.4152 26.7099 17.4152C26.7087 17.4152 26.7075 17.4152 26.7063 17.4152L26.6725 17.4153C26.1612 17.4153 25.6492 17.3798 25.1509 17.3098C24.8994 17.2744 24.6656 17.4501 24.6301 17.7022C24.5947 17.9544 24.7704 18.1876 25.0226 18.223C25.5633 18.2989 26.1184 18.3374 26.6725 18.3374L26.71 18.3373H26.7107C26.7879 18.3373 26.8587 18.3772 26.8959 18.4416C28.1447 20.6059 31.0155 21.1585 32.1918 21.2956C32.4516 21.3258 32.6992 21.2071 32.8378 20.9851C32.9761 20.7636 32.9743 20.4894 32.8332 20.2695C32.4789 19.7176 31.8466 18.6132 31.5918 17.4161C31.5715 17.3204 31.6187 17.2225 31.7066 17.178Z" fill="#674D40"/>
<path d="M9.45651 7.86719C8.57532 7.86719 7.85846 8.58411 7.85846 9.46524C7.85846 10.3464 8.57532 11.0633 9.45651 11.0633C10.3377 11.0633 11.0546 10.3464 11.0546 9.46524C11.0546 8.58411 10.3377 7.86719 9.45651 7.86719ZM9.45651 10.1412C9.08382 10.1412 8.78066 9.83793 8.78066 9.4653C8.78066 9.09267 9.08388 8.78945 9.45651 8.78945C9.82914 8.78945 10.1324 9.09267 10.1324 9.4653C10.1324 9.83793 9.82914 10.1412 9.45651 10.1412Z" fill="#674D40"/>
<path d="M14.0154 7.86719C13.1342 7.86719 12.4174 8.58411 12.4174 9.46524C12.4174 10.3464 13.1342 11.0633 14.0154 11.0633C14.8966 11.0633 15.6135 10.3464 15.6135 9.46524C15.6135 8.58411 14.8966 7.86719 14.0154 7.86719ZM14.0154 10.1412C13.6427 10.1412 13.3396 9.83793 13.3396 9.4653C13.3396 9.09267 13.6428 8.78945 14.0154 8.78945C14.388 8.78945 14.6913 9.09267 14.6913 9.4653C14.6913 9.83793 14.3881 10.1412 14.0154 10.1412Z" fill="#674D40"/>
<path d="M18.5743 7.86719C17.6931 7.86719 16.9763 8.58411 16.9763 9.46524C16.9763 10.3464 17.6931 11.0633 18.5743 11.0633C19.4555 11.0633 20.1724 10.3464 20.1724 9.46524C20.1724 8.58411 19.4555 7.86719 18.5743 7.86719ZM18.5743 10.1412C18.2016 10.1412 17.8985 9.83793 17.8985 9.4653C17.8985 9.09267 18.2017 8.78945 18.5743 8.78945C18.9469 8.78945 19.2502 9.09267 19.2502 9.4653C19.2502 9.83793 18.947 10.1412 18.5743 10.1412Z" fill="#674D40"/>
<path d="M23.1333 7.86719C22.2521 7.86719 21.5352 8.58411 21.5352 9.46524C21.5352 10.3464 22.2521 11.0633 23.1333 11.0633C24.0145 11.0633 24.7313 10.3464 24.7313 9.46524C24.7313 8.58411 24.0145 7.86719 23.1333 7.86719ZM23.1333 10.1412C22.7606 10.1412 22.4574 9.83793 22.4574 9.4653C22.4574 9.09267 22.7606 8.78945 23.1333 8.78945C23.5059 8.78945 23.8091 9.09267 23.8091 9.4653C23.8091 9.83793 23.5059 10.1412 23.1333 10.1412Z" fill="#674D40"/>
</g>
<defs>
<filter id="filter0_d_22_168" x="0.522217" y="0" width="39.4778" height="29.3005" filterUnits="userSpaceOnUse" color-interpolation-filters="sRGB">
<feFlood flood-opacity="0" result="BackgroundImageFix"/>
<feColorMatrix in="SourceAlpha" type="matrix" values="0 0 0 0 0 0 0 0 0 0 0 0 0 0 0 0 0 0 127 0" result="hardAlpha"/>
<feOffset dy="4"/>
<feGaussianBlur stdDeviation="2"/>
<feComposite in2="hardAlpha" operator="out"/>
<feColorMatrix type="matrix" values="0 0 0 0 0 0 0 0 0 0 0 0 0 0 0 0 0 0 0.25 0"/>
<feBlend mode="normal" in2="BackgroundImageFix" result="effect1_dropShadow_22_168"/>
<feBlend mode="normal" in="SourceGraphic" in2="effect1_dropShadow_22_168" result="shape"/>
</filter>
</defs>
</svg>
